<svg xmlns="http://www.w3.org/2000/svg" viewBox="0 0 800 600" preserveAspectRatio="xMidYMid slice">
  <defs>
    <linearGradient id="goaSky" x1="0" y1="0" x2="0" y2="1">
      <stop offset="0%" stop-color="#E6F0FA"/>
      <stop offset="55%" stop-color="#F6D6A8"/>
      <stop offset="100%" stop-color="#E9C496"/>
    </linearGradient>
    <linearGradient id="goaSea" x1="0" y1="0" x2="0" y2="1">
      <stop offset="0%" stop-color="#4A7BA4"/>
      <stop offset="100%" stop-color="#3057A4"/>
    </linearGradient>
    <filter id="goaGlow" x="-20%" y="-20%" width="140%" height="140%">
      <feGaussianBlur stdDeviation="2.5" result="blur"/>
      <feComposite in="SourceGraphic" in2="blur" operator="over"/>
    </filter>
  </defs>
  <rect width="800" height="600" fill="url(#goaSky)"/>
  <circle cx="600" cy="140" r="55" fill="#FDF4E3" opacity="0.85" filter="url(#goaGlow)"/>
  <path d="M0 420 Q200 380 400 420 T800 410 V600 H0 Z" fill="url(#goaSea)" opacity="0.95"/>
  <path d="M0 450 Q220 430 420 455 T800 445 V600 H0 Z" fill="#F4E6D0" opacity="0.7"/>
  <g opacity="0.88">
    <path d="M120 430 Q130 260 110 180 Q140 250 150 430" fill="#1E3A2F"/>
    <path d="M100 300 Q60 240 30 260 Q70 270 95 310" fill="#234D3A"/>
    <path d="M145 290 Q190 220 230 245 Q185 260 150 300" fill="#234D3A"/>
    <path d="M90 425 Q95 330 85 270 Q105 330 110 425" fill="#163325"/>
    <ellipse cx="120" cy="438" rx="26" ry="6" fill="#1E3A2F" opacity="0.5"/>
  </g>
  <g opacity="0.82" transform="translate(580,0)">
    <path d="M130 440 Q145 270 120 190 Q155 260 165 440" fill="#1E3A2F"/>
    <path d="M105 310 Q65 245 35 268 Q75 280 100 320" fill="#234D3A"/>
    <path d="M160 300 Q205 225 245 252 Q200 268 165 310" fill="#234D3A"/>
    <ellipse cx="135" cy="448" rx="28" ry="6" fill="#1E3A2F" opacity="0.5"/>
  </g>
  <g opacity="0.55">
    <path d="M650 440 Q670 340 660 280 Q680 340 690 440" fill="#234D3A"/>
    <path d="M630 360 Q600 320 580 335 Q610 345 625 365" fill="#2F5A44"/>
    <path d="M700 355 Q740 300 770 320 Q730 335 705 360" fill="#2F5A44"/>
  </g>
  <path d="M0 520 Q300 480 800 525 V600 H0 Z" fill="#DCC6AB" opacity="0.35"/>
</svg>